#!OML:ASF H:\charlestonDancing\Project 1\Capture day 1\Session 1\femaleDancer.ASF
:FULLY-SPECIFIED
:DEGREES
331
root -11.341 17.609 3.11373 221.824 -93.4896 -211.788
lowerback 15.9905 -3.55886 2.89441
upperback 1.27464 -4.23794 0.25232
thorax -7.78443 -2.17002 -0.407448
lowerneck 11.2594 -17.427 -9.39844
upperneck -12.025 -23.5471 12.7912
head -2.72389 -12.1722 6.06004
rclavicle 3.23025e-014 -9.14409e-015
rhumerus -24.3334 11.0302 -72.7141
rradius 28.3894
rwrist 53.4869
rhand -37.2796 -37.6339
rfingers 7.12502
rthumb -10.3444 292.641
lclavicle 3.23025e-014 -9.14409e-015
lhumerus -44.3428 2.72791 61.8048
lradius 32.2179
lwrist -16.9947
lhand -29.2542 -1.47851
lfingers 7.12502
lthumb -2.59716 28.4854
rfemur -20.1769 4.9256 29.7905
rtibia 43.0025
rfoot -17.5226 -3.34969
rtoes -24.5457
lfemur -25.065 -26.9857 -2.81289
ltibia 62.6126
lfoot 20.8106 -14.8945
ltoes -3.98335
332
root -11.3771 17.6727 3.11648 234.342 -92.4112 -224.335
lowerback 16.1483 -3.3746 2.36163
upperback 1.35993 -4.10091 0.106873
thorax -7.7479 -2.08931 -0.28962
lowerneck 11.0511 -17.1457 -9.41977
upperneck -11.9362 -23.173 12.7002
head -2.71449 -11.9771 6.02227
rclavicle -4.19436e-014 7.95139e-015
rhumerus -23.671 11.8106 -72.5298
rradius 28.127
rwrist 53.9116
rhand -37.2834 -38.3105
rfingers 7.12502
rthumb -10.3481 291.964
lclavicle -4.19436e-014 7.95139e-015
lhumerus -45.061 2.01503 62.1384
lradius 32.2788
lwrist -16.4237
lhand -29.7875 -1.70674
lfingers 7.12502
lthumb -3.11225 28.2503
rfemur -20.3082 10.1505 28.204
rtibia 43.3623
rfoot -16.8198 1.09035
rtoes -22.4432
lfemur -27.2361 -30.3297 -0.0956026
ltibia 62.1686
lfoot 14.8427 -13.615
ltoes -10.6143
333
root -11.4164 17.7134 3.12876 259.171 -91.6478 -249.041
lowerback 16.1233 -3.31948 2.04034
upperback 1.42379 -4.10295 -0.0664206
thorax -7.65557 -2.08343 -0.297485
lowerneck 10.9899 -16.7874 -9.48152
upperneck -12.1534 -22.6867 12.8199
head -2.80082 -11.7423 6.08533
rclavicle 1.78906e-014 2.34566e-014
rhumerus -22.8159 12.3404 -72.3576
rradius 27.6795
rwrist 54.0909
rhand -37.2476 -38.705
rfingers 7.12502
rthumb -10.3135 291.568
lclavicle 1.78906e-014 2.34566e-014
lhumerus -45.7854 1.39418 62.2998
lradius 32.2421
lwrist -15.8816
lhand -30.3012 -1.88152
lfingers 7.12502
lthumb -3.60836 28.0677
rfemur -20.4348 14.6064 26.7369
rtibia 43.3071
rfoot -17.0256 4.54725
rtoes -25.9334
lfemur -29.8573 -33.4647 3.01647
ltibia 61.552
lfoot 10.3621 -11.4441
ltoes -18.6391
334
root -11.4608 17.7265 3.14793 291.845 -91.5973 -281.663
lowerback 16.0647 -3.40505 2.09278
upperback 1.54859 -4.22473 -0.21722
thorax -7.50742 -2.14764 -0.467479
lowerneck 10.9476 -16.4284 -9.52445
upperneck -12.4881 -22.1917 12.9876
head -2.92344 -11.5085 6.16976
rclavicle 2.72335e-014 -1.19271e-015
rhumerus -21.8747 12.4053 -72.167
rradius 27.1713
rwrist 54.5466
rhand -37.0507 -38.6012
rfingers 7.12502
rthumb -10.1236 291.662
lclavicle 2.72335e-014 -1.19271e-015
lhumerus -46.4941 0.823716 62.3153
lradius 32.1753
lwrist -15.4365
lhand -30.4555 -1.67892
lfingers 7.12502
lthumb -3.75734 28.2677
rfemur -20.0886 17.4451 25.9519
rtibia 42.7041
rfoot -18.214 6.39484
rtoes -29.6294
lfemur -32.7358 -36.2912 6.51651
ltibia 60.8375
lfoot 7.13678 -9.23176
ltoes -30.982
335
root -11.5121 17.7181 3.16862 311.472 -92.0152 -301.393
lowerback 16.0474 -3.52366 2.40985
upperback 1.75015 -4.34249 -0.328095
thorax -7.31672 -2.21749 -0.744532
lowerneck 10.7329 -16.1439 -9.52137
upperneck -12.6806 -21.7936 13.0322
head -2.98641 -11.3137 6.18532
rclavicle 3.37934e-015 -2.8625e-014
rhumerus -21.0024 11.9375 -71.8696
rradius 26.702
rwrist 55.3712
rhand -36.704 -38.2834
rfingers 7.12502
rthumb -9.78904 291.964
lclavicle 3.37934e-015 -2.8625e-014
lhumerus -47.0381 0.349629 62.254
lradius 32.0022
lwrist -15.3706
lhand -30.3811 -1.33845
lfingers 7.12502
lthumb -3.68551 28.6094
rfemur -19.1028 18.4719 26.0079
rtibia 41.5414
rfoot -18.8167 6.55355
rtoes -27.5544
lfemur -35.5302 -38.3724 9.95197
ltibia 60.0112
lfoot 5.36145 -7.20695
ltoes -36.9001
336
root -11.5664 17.6972 3.1924 320.058 -92.5691 -310.211
lowerback 16.1961 -3.61623 2.9507
upperback 1.95049 -4.38002 -0.396974
thorax -7.23008 -2.25367 -1.11051
lowerneck 10.6212 -15.9097 -9.59523
upperneck -12.9444 -21.4718 13.1426
head -3.06249 -11.16 6.24028
rclavicle 4.03533e-014 1.19271e-014
rhumerus -20.3221 10.9561 -71.4412
rradius 26.2795
rwrist 56.4407
rhand -36.5139 -38.1693
rfingers 7.12502
rthumb -9.60563 292.07
lclavicle 4.03533e-014 1.19271e-014
lhumerus -47.2684 -0.0379109 62.1973
lradius 31.4961
lwrist -15.8954
lhand -30.4987 -1.26466
lfingers 7.12502
lthumb -3.79902 28.6812
rfemur -17.6257 17.6806 26.6905
rtibia 39.9451
rfoot -18.1002 6.04687
rtoes -19.2166
lfemur -38.0084 -39.4316 12.8703
ltibia 59.0331
lfoot 4.02288 -5.15987
ltoes -34.1012
